<svg xmlns="http://www.w3.org/2000/svg" viewBox="0 0 1755 467" style="fill: #EEC932;"><path d="M1064 17.7c-17.8 2-41.7 9.1-57.9 17.3-34.7 17.4-58.6 42.4-84.6 88.6l-9.1 16.1-12.9-9.8c-40.2-30.6-58.5-38.6-78.3-34.5-11.4 2.4-20.2 7.6-31.3 18.6-13.6 13.4-20.6 24.4-61.4 95.5-40.4 70.4-58.7 99.4-69.4 110.3-10.6 10.7-23.7 15.1-41.8 13.8-9.8-.7-25.4-3.3-26.5-4.4-.3-.4 2.7-5.9 6.8-12.2 11.8-18.2 27.3-44.3 52.3-87.8L679 180c7.7-11.4 18.9-24.8 27.3-32.6 13.6-12.8 31.6-17.9 47.7-13.7 2.5.6 2.5.6.7-1.4-5.7-6.4-40.9-29.2-52.2-33.7-22.2-8.9-43.1-3.4-62.7 16.7-11.3 11.5-21 26.9-61.3 97.2-51.1 88.9-65 109.3-79.9 116.5-11.2 5.4-25.9 6.2-47.1 2.4-4.9-.9-9.2-1.8-9.4-2-.2-.1 3.9-6.9 9.1-15.1 12-18.8 30.6-50.1 53.8-90.8 20.8-36.4 26.2-44.9 37-58.4 11.1-13.9 21.8-23.6 30.4-27.7 9.4-4.4 20.3-6.2 28.8-4.6 3.4.6 6.4 1 6.6.8.5-.5-13.4-11-24.3-18.3-23.7-15.9-34.8-20.5-49-20.6-11 0-18.6 2.3-28.9 9-19.2 12.4-32.1 31.7-88.1 131.8l-31 55c-5 8.8-11.5 20.5-14.3 26.1-19.5 37.9-52.6 65.9-90.8 76.8-16.3 4.7-26.5 6-46.4 6-26.6.1-49.2-3.5-74.5-11.9-36.6-12-61.7-31.9-76.4-60.5-10-19.5-14.1-38.1-14.1-64.1 0-35.4 6.3-61 23.1-93.9 30-58.8 73.2-100.1 121.9-116.3 41.7-13.9 87.1-17.2 132-9.6 14.1 2.4 26.9 5.6 46.1 11.4 15.4 4.7 18.9 5.3 18.9 3.2 0-.6-.9-7.5-2.1-15.3l-2.2-14.1-10.6-1.1c-26.2-2.8-41.6-3.4-74.6-2.9-50.8.8-83.2 5.7-119.8 17.9-41.7 13.9-88.9 43-120.2 74.3-31.4 31.3-50.9 65.6-59.7 104.8-2 8.8-2.3 13-2.3 31.2 0 22.5.9 29.1 6.2 45.9 8.4 26.7 28.7 56.5 47.8 70.1C100 386.8 140.4 400 195 408.2c13.8 2 19.1 2.3 48.5 2.3 25.5-.1 35.9-.5 45.7-1.8 29.7-4 61.2-11.1 77.2-17.4 31.3-12.3 53.1-28.5 67-49.9l5.9-9 18.6 13.5c44 32.1 50.1 34.9 69.5 32.2 22.3-3.1 37.8-13.3 52.6-34.6 4.1-5.8 7.9-10.4 8.6-10.1s6.3 4.2 12.5 8.8c19.1 14.1 41.2 29.4 45.6 31.7 11 5.5 24.3 6.2 39.4 2 19.6-5.4 31.7-16 50-43.9 15.8-23.9 27.7-43.4 48-78.6 50.9-88.2 57.3-98.1 69.5-106.5 8.1-5.5 14.5-7.2 27.9-7.2 10.3 0 26.7 2.1 28.2 3.7.2.2-7.3 14.1-16.6 30.9l-17.7 32.1c-.6 1.5 3.1 1.6 39.7 1.6h40.4l3-5.8c10.2-19.5 28-47.8 36.8-58.7 30.3-37.1 68.9-63.8 108.9-75.4 15.8-4.6 24.8-5.9 56.3-8.6L1616 27l122.5-8.9c3.8-.8-667.2-1.2-674.5-.4zm43.4 78.7c-11.2 3.5-25.1 13.6-34 24.7-10.6 13.3-18.8 26.6-55.4 90.4-30.7 53.4-40.3 69.6-53.2 88.7-18.9 28.1-28.1 33.9-54 33.9-8.8 0-23.5-1.5-24.5-2.5-.2-.1 8.5-15.9 19.3-35.1l20.1-36.2c.4-1-7.5-1.3-39.8-1.3h-40.4l-7 12.7c-16.7 30.4-30.4 49.9-46.8 67-25.8 26.8-56.3 46.7-87.7 57-22.4 7.5-31.3 8.7-98.5 13.8l-478 33.5-65 4.9c-2.3.5 143.7.8 337 .7l341-.1 12.1-2.7c54.4-12.2 92.8-42.5 124.1-97.8 3.5-6.3 6.6-11.7 6.8-11.8.2-.2 7.5 5 16.3 11.7 22.9 17.2 35.7 25.7 42.1 28.2 18.7 7 46.3.1 63.1-15.8 3.9-3.6 10-10.9 13.7-16.2 3.6-5.3 6.9-10 7.3-10.4.4-.5 5.9 3 12.2 7.6 24.8 18.3 46 32.6 51.5 34.7 18.9 7.1 46.4.3 63.4-15.7 3.9-3.7 10.5-11.6 14.6-17.5 4.2-5.9 7.8-10.8 8-10.8s5.4 3.7 11.6 8.3c22.4 16.5 42.6 30.6 47.9 33.3 11.3 5.7 21.6 6.8 35.3 3.5 19-4.6 32.7-14.1 45.8-31.6 7.7-10.4 28.6-45.6 30.9-52 2.5-7.2 2.4-22.8-.2-33-4.5-17.5-15.4-32.7-28.9-40.3-3.6-2-10.6-7-15.6-11.2-11.9-10-23-18.4-34-25.7-16.7-11.2-25.1-14.3-37.9-14.3-9.4 0-16.6 1.7-25.1 5.9-10.8 5.4-16.4 10.9-30.7 29.8-17.1 22.6-21.3 29-33.3 49.8-10.9 19-22.8 37.9-32.5 51.7-16.1 22.8-27.4 28.8-52.3 27.5-9.1-.5-26.3-3.1-27.5-4.2-.1-.1 5.1-8.7 11.6-19.1 13.2-21 25-41.1 49.2-83.4 43-75.3 50.1-83.6 74.3-87 8.8-1.3 22.7.1 35.3 3.4 4.9 1.4 9 2.3 9.2 2.1.4-.4-20.3-16.7-31.3-24.7-18.2-13.2-32-21.1-42.4-24.2-6.5-1.9-21.8-2-27.7-.2zm183.1 117.1c5.8 1.2 19.3 5.2 20.3 6 .4.3-23.3 42.6-31 55.3-12.6 20.8-25.1 38.5-31.9 45.4-10.1 10.3-19.4 13.8-36.4 13.8-8.7 0-31.3-3.4-32.8-4.9-.5-.5.8-3.4 3.1-6.8 6.9-10.2 21.6-34.2 33.7-55.3 16.4-28.4 19.3-32.6 26.6-39.5 14.4-13.4 30-17.9 48.4-14z"/></svg>